<?xml version="1.0" encoding="UTF-8"?>
<svg id="Layer_2" data-name="Layer 2" xmlns="http://www.w3.org/2000/svg" viewBox="0 0 389.68 81.88">
  <defs>
    <style>
      .cls-1 {
        fill: #243746;
      }
    </style>
  </defs>
  <g id="Layer_1-2" data-name="Layer 1">
    <path class="cls-1" d="M389.68,35.25v-9.32h-16.62v-3.87c0-9.44,4.65-12.74,12.79-12.74h3.84V0h-6.39c-13.02,0-20.93,5.69-20.93,20.47v60.04h10.7v-45.26h16.62ZM267.73,50.49c0-15.12,7.91-22.06,19.07-22.06,12.32,0,18.83,7.16,18.83,22.06h-.12c0,15.13-8.14,22.06-18.72,22.06-11.39,0-19.07-7.28-19.07-22.06M75.57,44.81c.58-10.46,7.67-16.38,17.9-16.38,11.29,0,16.98,5.79,16.98,15.77,0,.2,0,.4,0,.6h-34.88ZM55.34,80.51v-32.98c0-18.31-9.07-28.43-27.44-28.43C10.7,19.1,0,27.97,0,47.54v32.98h10.7v-32.98c0-13.08,6.16-19.1,17.09-19.1,11.97,0,16.86,6.71,16.86,19.1v32.98h10.69ZM121.38,47.8c0-18.91-9.96-28.7-27.68-28.7s-29.06,9.78-29.06,30.25,11.28,31.16,30.11,31.16h19.18v-9.44h-19.3c-11.39,0-18.14-6.37-18.72-16.95h45.34s.12-3.64.12-5.34c0-.33,0-.66,0-.98M185.31,53.45V20.47h-10.69v32.98c0,13.08-6.16,19.1-17.09,19.1-11.97,0-16.86-6.71-16.86-19.1V20.47h-10.69v32.98c0,18.31,9.07,28.43,27.44,28.43,17.21,0,27.9-8.87,27.9-28.43M250.18,80.51v-34.12c0-17.97-6.63-27.29-22.09-27.29-14.3,0-20.34,7.96-22.09,15.24h-.46V0h-10.7v80.51h10.7v-28.89c0-15.81,8.72-23.2,18.48-23.2,11.39,0,15.46,6.82,15.46,20.47v31.61h10.69ZM316.21,50.49c0-20.13-10.7-31.39-29.3-31.39-17.32,0-29.76,10.35-29.76,31.39s11.28,31.39,29.76,31.39c17.32,0,29.3-10.8,29.3-31.39M353.06,35.25v-9.32h-16.62v-3.87c0-9.44,4.65-12.74,12.79-12.74h3.84V0h-6.39c-13.02,0-20.93,5.69-20.93,20.47v60.04h10.7v-45.26h16.62Z"/>
  </g>
</svg>